<?xml version="1.0" encoding="UTF-8" standalone="no"?>
<!-- Created with Inkscape (http://www.inkscape.org/) -->

<svg
   width="33.689575mm"
   height="45.493191mm"
   viewBox="0 0 33.689575 45.493191"
   version="1.1"
   id="svg1"
   xml:space="preserve"
   xmlns="http://www.w3.org/2000/svg"
   xmlns:svg="http://www.w3.org/2000/svg"><defs
     id="defs1" /><g
     id="layer1"
     transform="translate(-90.989116,-47.651358)"><g
       id="g11"><path
         style="opacity:0.95;fill:none;fill-opacity:1;stroke:#000000;stroke-width:0.528819"
         d="m 117.00248,61.014348 v 0 c -0.76064,-3.589995 -3.33821,-6.032451 -8.63271,-6.758955 -3.59668,0.335651 -7.19551,0.662671 -9.16055,7.524887 1.28354,7.095776 1.10441,11.663628 1.10441,11.663628 l -2.239143,7.613088 c -2.72972,3.450316 -6.503521,5.856552 -6.806996,11.733113 l 32.960189,0.08956 c 0.49712,-1.115005 -0.1039,-1.54464 -0.35067,-2.50978 -0.86949,-3.400551 -1.78881,-6.777651 -5.82936,-8.685938 l -1.16436,-8.956574 z"
         id="path1" /><path
         style="opacity:0.95;fill:none;fill-opacity:1;stroke:#000000;stroke-width:0.529;stroke-dasharray:none"
         d="m 97.716223,81.504824 c 2.945537,1.876362 6.529257,2.336387 9.941797,3.045235 5.27185,-0.925513 7.1407,-1.582328 9.9418,-2.50784 l 0.26869,-0.08957"
         id="path2" /><path
         style="opacity:0.95;fill:none;fill-opacity:1;stroke:#000000;stroke-width:0.529;stroke-dasharray:none"
         d="m 96.193606,83.385704 4.657414,3.940895 3.49307,-0.179134 3.49306,-2.50784 3.9409,2.686974 3.40349,-0.268698 5.01568,-3.851328 v 0"
         id="path3" /><path
         style="opacity:0.95;fill:none;fill-opacity:1;stroke:#000000;stroke-width:0.529;stroke-dasharray:none"
         d="m 96.372737,92.610976 -0.08957,-2.50784 v 0"
         id="path4" /><path
         style="opacity:0.95;fill:none;fill-opacity:1;stroke:#000000;stroke-width:0.529;stroke-dasharray:none"
         d="M 107.74759,92.790107 V 84.550058"
         id="path5" /><path
         style="opacity:0.95;fill:none;fill-opacity:1;stroke:#000000;stroke-width:0.529;stroke-dasharray:none"
         d="m 105.86671,90.282267 h 3.85132"
         id="path6" /><path
         style="opacity:0.95;fill:none;fill-opacity:1;stroke:#000000;stroke-width:0.529;stroke-dasharray:none"
         d="M 119.4807,92.96924 V 90.103136"
         id="path7" /><path
         style="opacity:0.95;fill:none;fill-opacity:1;stroke:#000000;stroke-width:0.529;stroke-dasharray:none"
         d="m 99.955367,74.787394 c 0,0 -2.197376,0.689957 -2.955669,0.358264 -0.758293,-0.331693 -1.115981,-1.015663 -1.164356,-1.612185 -0.04837,-0.596522 0.411076,-0.842605 0.582177,-1.567401 0.171101,-0.724796 0.134349,-2.731756 0.134349,-2.731756 v -0.985221 l -2.149578,-1.164354 4.926115,-4.299156 v 0"
         id="path8" /><path
         style="opacity:0.95;fill:none;fill-opacity:1;stroke:#000000;stroke-width:0.529;stroke-dasharray:none"
         d="m 99.955369,68.965621 -3.291543,-0.671745 0.06718,0.04478"
         id="path9" /><path
         style="opacity:0.95;fill:none;fill-opacity:1;stroke:#000000;stroke-width:0.529;stroke-dasharray:none"
         d="m 103.17973,55.262062 c 0,0 -0.4856,-1.741335 -0.44783,-2.686973 0.0378,-0.945638 0.15385,-2.067662 0.71653,-2.866102 0.56268,-0.79844 1.56891,-1.355017 2.41828,-1.612185 0.84937,-0.257168 1.67193,-0.225974 2.41827,0 0.74634,0.225974 1.36841,0.747587 1.88088,1.253921 0.80497,0.795327 0.48672,1.536113 1.25395,1.970447 0.40038,0.226661 1.75298,-0.64536 2.41828,-0.537395 0.6653,0.107965 0.95082,0.472343 1.34348,0.806093 0.39266,0.33375 0.7689,0.654064 0.98523,1.164354 0.21633,0.51029 0.0679,1.406904 0.17913,1.791314 0.11123,0.38441 -0.0843,0.172645 0.26869,0.537395 0.35298,0.36475 1.70083,0.62078 2.14958,1.164355 0.44875,0.543575 0.47591,1.107447 0.5374,1.701747 0.0615,0.5943 -4.6e-4,1.197046 -0.17914,1.791316 -0.17868,0.59427 -0.53154,1.269276 -0.89565,1.70175 -0.36411,0.432474 -1.16436,0.895657 -1.16436,0.895657"
         id="path10" /><ellipse
         style="opacity:0.95;fill:none;fill-opacity:1;stroke:#000000;stroke-width:0.529;stroke-dasharray:none"
         id="path11"
         cx="105.50845"
         cy="62.158623"
         rx="1.7913148"
         ry="1.791315" /></g></g></svg>
